<svg xmlns="http://www.w3.org/2000/svg" width="780" height="420" viewBox="0 0 780 420" font-family='system-ui, -apple-system, "Segoe UI", sans-serif' role="img" aria-label="Tree construction time">
<rect width="780" height="420" fill="#fcfcfb"/>
<text x="72" y="30" font-size="17" font-weight="600" fill="#0b0b0b">Tree construction time</text>
<text x="72" y="52" font-size="13" fill="#52514e">OBB tree (SAH, tight OBB per node) vs CHAI3D AABB tree, in seconds</text>
<rect x="72" y="66" width="14" height="4" rx="2" fill="#2a78d6"/>
<text x="92" y="72" font-size="12" fill="#52514e">OBB tree (SAH)</text>
<rect x="195.2" y="66" width="14" height="4" rx="2" fill="#eb6834"/>
<text x="215.2" y="72" font-size="12" fill="#52514e">CHAI3D AABB</text>
<line x1="72" x2="590" y1="364.0" y2="364.0" stroke="#e1e0d9" stroke-width="1"/>
<text x="64" y="368.0" font-size="11" fill="#898781" text-anchor="end">0.0001</text>
<line x1="72" x2="590" y1="318.7" y2="318.7" stroke="#e1e0d9" stroke-width="1"/>
<text x="64" y="322.7" font-size="11" fill="#898781" text-anchor="end">0.001</text>
<line x1="72" x2="590" y1="273.3" y2="273.3" stroke="#e1e0d9" stroke-width="1"/>
<text x="64" y="277.3" font-size="11" fill="#898781" text-anchor="end">0.01</text>
<line x1="72" x2="590" y1="228.0" y2="228.0" stroke="#e1e0d9" stroke-width="1"/>
<text x="64" y="232.0" font-size="11" fill="#898781" text-anchor="end">0.1</text>
<line x1="72" x2="590" y1="182.7" y2="182.7" stroke="#e1e0d9" stroke-width="1"/>
<text x="64" y="186.7" font-size="11" fill="#898781" text-anchor="end">1</text>
<line x1="72" x2="590" y1="137.3" y2="137.3" stroke="#e1e0d9" stroke-width="1"/>
<text x="64" y="141.3" font-size="11" fill="#898781" text-anchor="end">10</text>
<line x1="72" x2="590" y1="92.0" y2="92.0" stroke="#e1e0d9" stroke-width="1"/>
<text x="64" y="96.0" font-size="11" fill="#898781" text-anchor="end">100</text>
<text transform="translate(18,228.0) rotate(-90)" font-size="12" fill="#898781" text-anchor="middle">Seconds (log scale)</text>
<line x1="72" x2="590" y1="364" y2="364" stroke="#c3c2b7" stroke-width="1"/>
<text x="72.0" y="384" font-size="11" fill="#898781" text-anchor="middle">1K</text>
<text x="244.7" y="384" font-size="11" fill="#898781" text-anchor="middle">10K</text>
<text x="417.3" y="384" font-size="11" fill="#898781" text-anchor="middle">100K</text>
<text x="590.0" y="384" font-size="11" fill="#898781" text-anchor="middle">1M</text>
<text x="331.0" y="408" font-size="12" fill="#898781" text-anchor="middle">Number of object triangles (log scale)</text>
<path d="M72.0,274.4 L244.7,223.7 L417.3,174.3 L590.0,121.1" fill="none" stroke="#2a78d6" stroke-width="2" stroke-linejoin="round" stroke-linecap="round"/>
<circle cx="72.0" cy="274.4" r="4" fill="#2a78d6" stroke="#fcfcfb" stroke-width="2"/>
<circle cx="244.7" cy="223.7" r="4" fill="#2a78d6" stroke="#fcfcfb" stroke-width="2"/>
<circle cx="417.3" cy="174.3" r="4" fill="#2a78d6" stroke="#fcfcfb" stroke-width="2"/>
<circle cx="590.0" cy="121.1" r="4" fill="#2a78d6" stroke="#fcfcfb" stroke-width="2"/>
<path d="M72.0,347.1 L244.7,298.7 L417.3,254.1 L590.0,203.7" fill="none" stroke="#eb6834" stroke-width="2" stroke-linejoin="round" stroke-linecap="round"/>
<circle cx="72.0" cy="347.1" r="4" fill="#eb6834" stroke="#fcfcfb" stroke-width="2"/>
<circle cx="244.7" cy="298.7" r="4" fill="#eb6834" stroke="#fcfcfb" stroke-width="2"/>
<circle cx="417.3" cy="254.1" r="4" fill="#eb6834" stroke="#fcfcfb" stroke-width="2"/>
<circle cx="590.0" cy="203.7" r="4" fill="#eb6834" stroke="#fcfcfb" stroke-width="2"/>
<text x="600" y="125.1" font-size="12" fill="#52514e">22.76 - OBB tree (SAH)</text>
<text x="600" y="207.7" font-size="12" fill="#52514e">0.34 - CHAI3D AABB</text>
</svg>